<?xml version="1.0" encoding="utf-8" ?>
<svg xmlns="http://www.w3.org/2000/svg" xmlns:xlink="http://www.w3.org/1999/xlink" width="1820" height="1024">
	<path fill="#E2E2E2" d="M0 0L1818.44 0C1820.58 3.35778 1819.99 8.22266 1820 12.0828L1820 742.336L1820.01 943.951L1820 997.417C1819.99 1004.76 1820.98 1013.76 1819.75 1020.9C1819.56 1022.02 1819.05 1023.05 1818.44 1024L0 1024L0 0Z"/>
	<path d="M1218.91 745.329C1219.22 745.263 1219.53 745.191 1219.84 745.131C1222.61 744.598 1225.07 744.694 1227.34 746.613C1229.05 748.056 1229.06 748.997 1229.16 751.049C1227.87 753.33 1226.98 753.788 1224.81 755.115C1223.86 755.647 1222.58 755.638 1221.5 755.775C1219.73 754.919 1218.71 754.47 1218.03 752.418C1217.08 749.513 1217.89 747.942 1218.91 745.329Z"/>
	<path d="M1162.73 709.775C1163.84 710.184 1164.14 710.406 1164.87 711.409C1170.3 718.935 1155.31 722.299 1152.73 726.812C1148.57 734.102 1152.34 746.08 1150.57 754.336C1150.51 754.599 1150.45 754.861 1150.39 755.124C1148.07 755.259 1145.3 755.655 1143.02 755.272C1140.54 754.855 1140.16 753.54 1138.86 751.582C1143.2 743.663 1138.32 721.339 1141.03 711.164C1141.6 710.903 1142.08 710.692 1142.69 710.568C1145.05 710.087 1146.7 710.127 1148.79 711.363C1149.94 712.994 1150.2 714.186 1150.37 716.172C1150.39 716.387 1150.4 716.603 1150.42 716.818C1152.59 716.401 1153.12 716.212 1154.76 714.666C1157.43 712.159 1159.29 711.098 1162.73 709.775Z"/>
	<path d="M947.263 709.252C947.374 709.328 947.497 709.39 947.597 709.481C949.154 710.904 949.486 713.808 949.413 715.792C946.669 720.419 941.124 721.171 937.413 724.891C932.623 729.694 934.752 748.949 934.866 755.382C931.583 755.495 928.438 755.48 925.166 755.163L924.071 753.8L924.101 710.301C927.753 710.222 931.61 709.457 934.562 711.753C934.86 713.371 935.016 714.686 936.066 716.021C939.207 713.113 942.289 710.936 946.365 709.55L947.263 709.252Z"/>
	<path d="M657.057 710.237C659.578 710.308 660.421 710.047 662.411 711.739C663.182 713.459 663.824 714.969 663.34 716.876C661.416 724.45 656.299 720.281 651.482 723.008C644.738 730.195 646.813 745.956 646.946 755.286L636.468 755.407C636.578 742.106 634.616 724.846 637.036 712.067C637.392 711.838 637.892 711.481 638.313 711.317C640.363 710.513 644.411 710.336 646.391 711.32C646.707 713.12 646.84 714.855 646.923 716.68C649.865 716.3 654.185 711.929 657.057 710.237Z"/>
	<path d="M1055.96 699.986C1059.34 699.591 1062.85 699.66 1066.26 699.571C1067.47 702.425 1067.28 705.357 1067.52 708.393C1067.92 713.462 1074.16 709.975 1077.07 712.477C1077.64 714.774 1078.41 716.758 1077.49 719.051C1074.6 720.732 1071.87 719.827 1068.65 720.582C1068.27 721.391 1067.99 721.976 1067.85 722.868C1067.35 726.215 1067.8 730.217 1067.81 733.652C1067.88 752.649 1074.19 740.343 1081.15 750.072C1080.84 752.315 1080.65 752.46 1079.06 754.104C1078.29 754.806 1077.73 755.189 1076.71 755.462C1072.69 756.536 1065.78 755.83 1062.23 753.495C1052.72 747.244 1059.07 730.909 1056.33 721.847C1055.61 719.455 1051.32 720.475 1049.1 719.272C1048.71 718.495 1048.42 717.944 1048.34 717.068C1047.55 708.492 1053.14 713.359 1056.62 709.828C1056.68 706.689 1056.82 703.623 1056.1 700.543C1056.06 700.357 1056.01 700.172 1055.96 699.986Z"/>
	<path d="M545.905 697.089C554.756 696.993 570.411 695.331 578.543 697.222C581.018 697.797 581.466 698.559 582.709 700.561C582.72 702.904 582.008 704.121 580.738 706.047C572.752 706.88 564.342 706.328 556.303 706.27L556.295 720.214C562.556 720.41 572.783 718.065 578.02 721.753C579.404 724.034 578.737 726.459 578.415 728.984L556.151 728.941L556.033 755.225L545.721 755.198L545.905 697.089Z"/>
	<path d="M1116.57 711.136L1127.24 710.893C1127.55 711.618 1127.81 712.281 1127.99 713.049C1129.01 717.329 1129.26 722.763 1126.97 726.646C1127.07 726.796 1127.16 726.942 1127.25 727.097C1130.18 732.383 1129.23 749.682 1127.45 755.365C1119.88 755.87 1121.86 756.244 1116.43 751.828C1113.79 753.219 1110.81 755.044 1107.97 755.926C1104.12 757.122 1098.63 755.859 1095.14 753.963C1081.12 746.358 1090.5 724.164 1086.49 712.068C1086.44 711.891 1086.37 711.719 1086.3 711.544C1089.88 710.939 1093.68 711.053 1097.31 710.957C1099.92 719.317 1097.32 728.148 1098.49 736.634C1098.91 739.704 1099.86 742.921 1102.59 744.726C1104.61 746.067 1107.09 746.213 1109.41 745.724C1111.9 745.199 1113.67 743.711 1115.04 741.614C1119.53 734.755 1118.35 718.796 1116.57 711.136Z"/>
	<path d="M344.881 696.266C350.344 696.276 380.124 695.228 382.942 697.544L382.908 706.582L355.891 706.542L355.94 721.197C363.322 721.456 370.564 720.078 377.74 722.189C380.001 724.395 379.554 725.733 379.797 728.815L378.481 730.281C371.246 731.349 363.395 730.71 356.074 730.621L356.102 755.05L344.727 755.051Q344.603 725.658 344.881 696.266Z"/>
	<path d="M752.538 709.559C758.592 710.136 764.05 711.66 768.438 716.139C772.086 719.864 774.693 727.666 774.467 732.796C774.129 740.465 749.343 731.553 741.902 738.041L742.085 740.198C744.071 743.215 746.025 745.366 749.683 746.382C755.993 748.135 762.344 745.896 767.774 742.797C769.457 744.081 770.541 745.088 771.536 746.972C771.395 747.851 771.212 748.79 770.767 749.574C769.151 752.426 765.105 754.024 762.086 754.811C755.126 756.627 746.923 755.886 740.73 752.082C735.59 748.924 732.317 743.884 730.974 738.046C729.671 732.38 730.615 725.69 733.775 720.763C738.293 713.72 744.662 711.173 752.538 709.559Z"/>
	<path fill="#E2E2E2" d="M750.865 718.346C752.36 718.499 753.898 718.637 755.367 718.96C758.348 719.614 762.53 722.17 764.109 724.87C764.824 726.092 764.439 726.405 764.033 727.739C761.626 729.429 758.637 728.909 755.815 728.825C751.686 728.975 745.252 730.033 741.954 727.353C741.816 726.549 741.473 725.823 741.858 725.077C743.749 721.413 747.08 719.54 750.865 718.346Z"/>
	<path d="M969.613 710.454C972.157 710.148 974.764 709.813 977.329 709.957C983.163 710.285 988.205 713.384 992.033 717.698C994.915 720.945 998.667 726.873 998.107 731.433C996.848 741.681 969.015 732.387 962.93 736.947L963.093 739.285C965.396 743.203 968.695 745.387 973.02 746.619C978.021 748.044 981.796 746.419 986.114 744.042L987.351 742.734C989.946 743.296 992.198 746.844 993.889 748.861C991.568 750.715 989.271 752.435 986.56 753.685C980.378 756.534 973.103 756.956 966.72 754.52Q966.188 754.319 965.666 754.091Q965.145 753.862 964.635 753.608Q964.126 753.354 963.63 753.074Q963.135 752.794 962.654 752.49Q962.173 752.185 961.708 751.856Q961.244 751.527 960.796 751.176Q960.349 750.824 959.92 750.449Q959.491 750.075 959.081 749.68Q958.672 749.284 958.283 748.869Q957.894 748.453 957.527 748.018Q957.16 747.583 956.815 747.13Q956.47 746.677 956.149 746.207Q955.828 745.737 955.531 745.251Q955.234 744.765 954.962 744.265Q954.69 743.765 954.444 743.252Q954.198 742.738 953.978 742.213C951.633 736.566 951.561 729.784 953.939 724.137C957.054 716.742 962.486 713.443 969.613 710.454Z"/>
	<path fill="#E2E2E2" d="M973.184 718.232C974.477 718.386 975.828 718.534 977.091 718.867C980.17 719.679 984.098 721.878 985.703 724.746C986.388 725.97 986.052 726.269 985.679 727.606C983.34 729.584 979.966 728.973 977.095 728.857C974.118 728.95 969.738 729.568 966.893 728.659C964.676 727.951 964.187 727.407 963.246 725.457C963.354 725.199 963.452 724.936 963.57 724.682C964.927 721.788 970.28 719.313 973.184 718.232Z"/>
	<path d="M884.876 697.016C897.857 695.97 905.427 698.955 915.519 706.756C912.674 709.604 910.324 712.619 907.957 715.87C904.933 712.7 901.536 709.954 897.456 708.283C892.961 706.442 888.297 705.779 883.721 707.77C878.669 709.966 874.788 714.618 872.855 719.705C870.909 724.828 871.245 730.523 873.482 735.495C875.449 739.866 878.743 743.604 883.321 745.288C889.52 747.568 896.562 745.806 902.296 743.148C904.388 741.278 906.354 739.207 908.363 737.244L916.24 745.413C911.824 749.459 907.318 752.707 901.6 754.68Q900.815 754.954 900.018 755.188Q899.22 755.423 898.412 755.617Q897.604 755.811 896.787 755.964Q895.97 756.117 895.146 756.229Q894.323 756.341 893.495 756.412Q892.666 756.482 891.836 756.511Q891.005 756.54 890.174 756.527Q889.343 756.515 888.514 756.46Q887.684 756.406 886.859 756.309Q886.033 756.213 885.213 756.076Q884.393 755.939 883.582 755.76Q882.77 755.582 881.968 755.363Q881.166 755.144 880.376 754.885Q879.587 754.626 878.811 754.328Q878.035 754.03 877.275 753.693Q876.515 753.356 875.773 752.982Q875.129 752.654 874.502 752.294Q873.875 751.934 873.267 751.543Q872.66 751.152 872.072 750.731Q871.485 750.309 870.919 749.859Q870.354 749.409 869.811 748.931Q869.269 748.453 868.752 747.948Q868.234 747.444 867.743 746.913Q867.251 746.383 866.787 745.829Q866.323 745.275 865.887 744.698Q865.452 744.121 865.046 743.523Q864.64 742.925 864.264 742.308Q863.888 741.69 863.544 741.054Q863.2 740.418 862.889 739.766Q862.577 739.114 862.299 738.447Q862.02 737.779 861.776 737.099Q861.531 736.419 861.321 735.727C858.95 728.009 859.573 719.158 863.476 712.036C868.12 703.561 875.925 699.583 884.876 697.016Z"/>
	<path d="M1184.17 710.665C1189.78 709.628 1194.75 709.544 1200.11 711.784C1205.84 714.184 1211 718.207 1213.29 724.156C1214.39 727.003 1215.07 732.273 1213.58 735.05C1212.34 737.367 1187.33 735.256 1182.7 736.825C1180.83 737.459 1180.81 737.594 1179.94 739.37C1180.6 741.399 1182.14 743.098 1183.9 744.303C1187.51 746.789 1192.64 747.354 1196.87 746.544C1199.28 746.083 1201.22 745.328 1202.64 743.24C1205.41 742.558 1206.17 742.873 1208.56 744.253C1208.87 744.971 1209.48 745.884 1209.3 746.65C1208.63 749.584 1206.08 751.777 1203.64 753.363C1199.23 756.231 1193.48 757.402 1188.32 756.231C1181.78 754.743 1174.62 750.28 1171.14 744.442C1168.18 739.463 1167.58 733.31 1169.11 727.755C1171.47 719.204 1176.83 714.895 1184.17 710.665Z"/>
	<path fill="#E2E2E2" d="M1188.02 718.664C1191.2 718.299 1194.1 718.714 1196.93 720.198C1199.71 721.65 1201.87 723.173 1202.83 726.178L1201.9 727.816C1199.03 729.617 1195.61 729.006 1192.38 728.831C1188.48 728.952 1184.11 729.762 1180.73 727.496C1180.16 726.351 1179.62 726.071 1180.1 724.791C1181.14 721.981 1185.49 719.961 1188.02 718.664Z"/>
	<path d="M1279.9 695.554C1287.08 695.119 1294.07 695.564 1300.69 698.707C1303.99 700.272 1307.85 702.961 1309.08 706.519C1307.47 709.425 1303.49 711.465 1300.74 713.28C1299.03 711.305 1297.39 709.641 1295.1 708.338C1290.84 705.915 1285.53 705.135 1280.78 706.469C1275.29 708.009 1269.06 712.317 1266.37 717.437C1264.25 721.479 1264.33 726.195 1265.7 730.466C1267.55 736.248 1271.51 740.852 1276.91 743.609C1281.37 745.883 1286.88 747.049 1291.72 745.358C1294.01 744.562 1296.66 742.763 1297.75 740.595C1298.8 740.138 1300.46 739.053 1301.56 739.304C1305.1 740.119 1307.31 742.471 1309.14 745.506L1308.63 746.858C1305.28 750.029 1301.3 752.6 1296.89 754.054C1287.89 757.031 1277.67 756.838 1269.16 752.437Q1268.52 752.105 1267.9 751.742Q1267.28 751.378 1266.68 750.985Q1266.08 750.591 1265.49 750.168Q1264.91 749.746 1264.35 749.294Q1263.79 748.843 1263.25 748.365Q1262.72 747.887 1262.2 747.383Q1261.69 746.878 1261.2 746.349Q1260.71 745.82 1260.25 745.268Q1259.79 744.715 1259.36 744.14Q1258.93 743.566 1258.52 742.97Q1258.12 742.375 1257.75 741.76Q1257.37 741.146 1257.03 740.514Q1256.69 739.881 1256.37 739.233Q1256.06 738.584 1255.78 737.921Q1255.5 737.258 1255.26 736.582Q1255.01 735.905 1254.8 735.218C1252.36 727.431 1252.95 718.748 1256.92 711.567C1261.96 702.435 1270.21 698.24 1279.9 695.554Z"/>
	<path d="M1015.2 710.469C1022.09 709.897 1029.57 709.322 1035.47 713.637C1040.02 716.96 1041.98 722.492 1042.69 727.894C1043.34 732.899 1044.52 751.9 1041.9 755.312C1038.99 755.57 1036.16 755.931 1033.27 755.378L1032.39 752.046C1027.53 752.044 1023.31 755.764 1018.6 756.391C1013.88 757.019 1009.36 754.27 1005.64 751.736C1003.09 748.196 1000.86 743.076 1001.6 738.597C1003.66 726.261 1023.94 731.744 1030.69 726.318C1030.86 724.875 1031.06 724.555 1030.3 723.32C1028.97 721.151 1027.08 719.996 1024.62 719.415C1018.08 717.864 1012.76 720.494 1007.26 723.784L1003.33 715.128C1007.19 713.243 1011.16 711.866 1015.2 710.469Z"/>
	<path fill="#E2E2E2" d="M1017.13 736.104C1022.71 735.671 1026.29 735.021 1031.18 738.054C1031.79 739.249 1032.47 739.858 1032.03 741.203C1031.05 744.191 1027.48 745.809 1024.82 747.047C1023.92 747.383 1022.98 747.698 1022.02 747.821C1019.72 748.115 1016.73 747.853 1014.91 746.301C1012.94 744.617 1012.88 743.407 1012.58 741.008C1013.4 738.363 1014.94 737.514 1017.13 736.104Z"/>
	<path d="M813.293 710.708C816.241 710.223 819.562 710.407 822.564 710.322Q828.756 726.437 834.51 742.714Q840.203 726.589 846.121 710.546L856.699 710.591L854.037 718.45L839.854 755.407L829.284 755.386Q823.841 740.102 817.581 725.135C813.337 735.048 809.847 745.393 806.072 755.499L795.246 755.469C789.775 740.569 783.34 725.638 778.91 710.419L789.697 710.414Q795.333 727.049 801.281 743.575C804.817 732.456 809.119 721.599 813.293 710.708Z"/>
	<path d="M604.067 709.576C609.298 709.759 614.302 710.541 618.843 713.321Q619.318 713.607 619.779 713.916Q620.24 714.226 620.684 714.558Q621.128 714.89 621.555 715.245Q621.982 715.599 622.391 715.974Q622.8 716.349 623.189 716.745Q623.578 717.14 623.947 717.555Q624.316 717.969 624.663 718.402Q625.011 718.835 625.336 719.284Q625.661 719.734 625.964 720.199Q626.266 720.665 626.544 721.145Q626.823 721.625 627.076 722.118Q627.33 722.612 627.559 723.117Q627.787 723.623 627.99 724.139Q628.193 724.656 628.37 725.182Q628.546 725.708 628.696 726.242Q628.846 726.777 628.969 727.318Q629.098 727.883 629.199 728.454Q629.3 729.024 629.373 729.599Q629.445 730.174 629.49 730.752Q629.534 731.33 629.549 731.909Q629.565 732.488 629.552 733.067Q629.539 733.647 629.498 734.225Q629.457 734.803 629.387 735.378Q629.317 735.953 629.218 736.524Q629.12 737.095 628.994 737.661Q628.868 738.227 628.714 738.785Q628.56 739.344 628.378 739.894Q628.197 740.444 627.989 740.985Q627.78 741.526 627.546 742.056Q627.311 742.585 627.05 743.103Q626.79 743.621 626.504 744.125Q626.218 744.629 625.908 745.118C621.324 752.214 615.162 754.764 607.181 756.395C602.182 756.262 596.939 755.01 592.67 752.354Q592.19 752.055 591.726 751.731Q591.262 751.408 590.815 751.062Q590.368 750.715 589.939 750.346Q589.51 749.978 589.101 749.588Q588.691 749.198 588.302 748.788Q587.912 748.378 587.544 747.948Q587.176 747.519 586.831 747.071Q586.485 746.624 586.162 746.16Q585.839 745.695 585.54 745.215Q585.242 744.735 584.968 744.24Q584.694 743.745 584.445 743.237Q584.196 742.729 583.974 742.209Q583.751 741.689 583.555 741.159Q583.359 740.628 583.19 740.088Q583.022 739.548 582.88 739.001Q582.739 738.453 582.626 737.899Q582.511 737.338 582.424 736.772Q582.337 736.207 582.278 735.637Q582.219 735.068 582.188 734.496Q582.158 733.925 582.156 733.352Q582.154 732.78 582.181 732.208Q582.207 731.636 582.262 731.067Q582.317 730.497 582.401 729.931Q582.484 729.364 582.595 728.803Q582.707 728.241 582.846 727.686Q582.985 727.131 583.152 726.583Q583.319 726.036 583.512 725.497Q583.706 724.959 583.927 724.43Q584.147 723.902 584.393 723.385Q584.64 722.869 584.912 722.365Q585.183 721.861 585.48 721.372Q585.776 720.882 586.097 720.408C590.401 714.006 596.702 710.983 604.067 709.576Z"/>
	<path fill="#E2E2E2" d="M600.896 719.256C602.853 718.916 604.748 718.636 606.738 718.882Q607.471 718.974 608.19 719.142Q608.909 719.31 609.607 719.553Q610.305 719.795 610.973 720.109Q611.642 720.423 612.274 720.806Q612.906 721.188 613.495 721.634Q614.083 722.08 614.622 722.586Q615.161 723.091 615.644 723.65Q616.127 724.209 616.549 724.815C618.764 728.041 619.312 732.181 618.416 735.947C617.229 740.937 614.125 743.515 609.983 746.126Q607.229 746.635 604.436 746.432C601.225 746.17 597.845 744.28 595.819 741.797C593.306 738.719 592.595 734.823 593.111 730.949C593.814 725.67 596.853 722.395 600.896 719.256Z"/>
	<path d="M456.238 709.523C461.149 709.144 465.988 709.257 470.586 711.23C476.603 713.813 481.37 718.573 483.652 724.744Q483.853 725.284 484.027 725.834Q484.201 726.383 484.348 726.94Q484.494 727.498 484.613 728.062Q484.731 728.626 484.821 729.195Q484.912 729.764 484.973 730.337Q485.035 730.911 485.068 731.486Q485.101 732.061 485.106 732.638Q485.11 733.214 485.086 733.79Q485.062 734.366 485.009 734.94Q484.956 735.513 484.875 736.084Q484.793 736.655 484.684 737.22Q484.574 737.786 484.436 738.346Q484.298 738.905 484.133 739.458Q483.967 740.01 483.775 740.553Q483.582 741.096 483.362 741.629Q483.143 742.162 482.897 742.683C479.496 749.74 473.745 753.127 466.602 755.593C461.147 755.913 455.743 755.973 450.688 753.612C444.966 750.941 440.555 746.276 438.493 740.278C436.502 734.487 436.767 727.772 439.526 722.273C443.085 715.176 448.947 711.885 456.238 709.523Z"/>
	<path fill="#E2E2E2" d="M456.685 719.156C459.061 718.9 461.446 718.68 463.811 719.172C467.51 719.941 470.811 722.603 472.683 725.841Q473.032 726.435 473.319 727.061Q473.605 727.687 473.826 728.339Q474.047 728.991 474.2 729.663Q474.353 730.334 474.437 731.018Q474.52 731.702 474.533 732.39Q474.546 733.079 474.489 733.765Q474.432 734.451 474.304 735.128Q474.177 735.805 473.981 736.465C472.588 741.332 469.49 743.779 465.234 746.152C463.028 746.484 461.052 746.574 458.851 746.217Q458.171 746.112 457.506 745.938Q456.841 745.763 456.197 745.521Q455.553 745.279 454.938 744.971Q454.323 744.663 453.743 744.293Q453.163 743.924 452.624 743.496Q452.085 743.068 451.594 742.587Q451.102 742.105 450.663 741.576Q450.224 741.046 449.842 740.474C447.633 737.18 447.188 733.173 448.083 729.377C449.273 724.333 452.417 721.712 456.685 719.156Z"/>
	<path d="M1330.22 710.666C1337.68 709.343 1345.21 709.655 1351.7 713.936Q1352.18 714.252 1352.64 714.592Q1353.1 714.932 1353.55 715.295Q1353.99 715.658 1354.42 716.044Q1354.84 716.429 1355.25 716.835Q1355.65 717.241 1356.04 717.668Q1356.42 718.094 1356.78 718.539Q1357.15 718.985 1357.48 719.448Q1357.82 719.911 1358.14 720.391Q1358.45 720.871 1358.74 721.366Q1359.03 721.861 1359.3 722.37Q1359.56 722.879 1359.8 723.401Q1360.04 723.923 1360.25 724.457Q1360.46 724.99 1360.65 725.534Q1360.83 726.078 1360.99 726.63Q1361.14 727.182 1361.27 727.741Q1361.4 728.301 1361.5 728.866C1362.57 734.752 1361.47 741.149 1358.02 746.094C1354.15 751.656 1348.55 754.475 1342.02 755.567C1338.51 756.915 1333.2 756.036 1329.71 755.008C1324.05 753.345 1319.54 749.414 1316.76 744.242C1313.8 738.748 1312.91 732.098 1314.87 726.124C1317.54 717.978 1322.98 714.353 1330.22 710.666Z"/>
	<path fill="#E2E2E2" d="M1333.44 719.554C1337.31 719.122 1340.71 719.064 1344.16 721.066C1347.43 722.961 1349.97 726.461 1350.9 730.107C1351.76 733.455 1351.33 737.061 1349.47 740.001C1347.2 743.57 1344.13 745.362 1340.07 746.224C1338.07 746.818 1335.57 746.719 1333.54 746.217C1330.53 745.474 1327.99 743.616 1326.46 740.921C1324.42 737.356 1324.21 732.777 1325.29 728.873C1326.6 724.187 1329.42 721.897 1333.44 719.554Z"/>
	<path d="M403.55 709.558C409.215 709.132 414.391 709.155 419.617 711.694C425.24 714.427 429.508 719.157 431.426 725.131Q431.604 725.686 431.754 726.249Q431.904 726.813 432.027 727.383Q432.149 727.953 432.244 728.528Q432.338 729.103 432.404 729.683Q432.47 730.262 432.507 730.844Q432.545 731.425 432.553 732.008Q432.562 732.591 432.542 733.174Q432.523 733.756 432.474 734.337Q432.426 734.918 432.349 735.496Q432.272 736.074 432.167 736.648Q432.061 737.221 431.928 737.789Q431.795 738.356 431.634 738.916Q431.473 739.477 431.285 740.028Q431.097 740.58 430.881 741.122Q430.666 741.664 430.425 742.194Q430.183 742.725 429.916 743.243C426.277 750.152 420.508 753.42 413.28 755.638C408.385 756.037 403.505 755.906 398.92 753.991C393.045 751.537 388.303 747.003 385.952 741.042Q385.751 740.539 385.576 740.028Q385.4 739.516 385.25 738.996Q385.1 738.476 384.976 737.949Q384.852 737.422 384.755 736.889Q384.658 736.357 384.587 735.821Q384.516 735.284 384.472 734.745Q384.428 734.205 384.411 733.664Q384.394 733.123 384.404 732.582Q384.413 732.041 384.45 731.501Q384.487 730.961 384.551 730.423Q384.614 729.886 384.705 729.352Q384.795 728.819 384.912 728.29Q385.028 727.762 385.171 727.24Q385.314 726.718 385.483 726.204Q385.652 725.689 385.846 725.184Q386.04 724.679 386.259 724.184C389.68 716.613 396.064 712.495 403.55 709.558Z"/>
	<path fill="#E2E2E2" d="M404.036 719.142C406.473 718.927 408.976 718.707 411.394 719.203C414.979 719.937 418.154 722.401 420.053 725.486C422.011 728.667 422.532 732.377 421.572 735.982C420.222 741.049 417.156 743.63 412.819 746.234C410.576 746.556 408.495 746.719 406.239 746.371C402.823 745.843 399.348 743.409 397.513 740.504C395.375 737.118 394.795 733.262 395.678 729.389C396.81 724.421 399.855 721.7 404.036 719.142Z"/>
	<path d="M1394.07 709.778C1400.17 709.756 1408.85 715.149 1409.46 715.062C1413.46 714.489 1416.89 710.161 1421.72 709.845C1423.93 709.7 1426.14 709.512 1428.35 709.839C1432.59 710.467 1436.24 712.558 1438.72 716.101C1444.83 724.835 1443.73 744.745 1441.8 755.085C1438.45 755.59 1434.35 755.172 1430.92 755.203C1431.48 753.527 1431.75 751.996 1431.83 750.24C1432.22 742.162 1433.97 727.13 1428.19 720.819C1425.54 719.502 1422.29 718.486 1419.32 719.354C1408.6 722.488 1415.24 739.747 1411.14 746.609C1411.03 746.781 1410.91 746.943 1410.8 747.111C1411.21 747.808 1411.64 748.552 1411.88 749.325C1412.55 751.5 1412.63 752.461 1411.7 754.493C1408.69 756.217 1403.64 755.534 1400.19 755.472C1400.47 754.842 1400.73 754.203 1400.95 753.546C1403.09 747.032 1402.71 729.931 1399.7 723.891C1398.48 721.441 1396.46 719.158 1393.73 718.418C1391.52 717.816 1389.3 718.42 1387.43 719.68C1377.27 726.553 1383.12 743.75 1380.74 754.089C1380.68 754.338 1380.61 754.586 1380.55 754.835C1377.14 755.289 1373.03 754.809 1369.55 754.776C1373.31 743.251 1367.64 719.534 1371.28 710.727C1371.86 710.477 1372.45 710.222 1373.06 710.049C1375.73 709.289 1377.49 709.823 1379.73 711.121C1379.95 712.078 1380.09 713.218 1380.75 713.98C1381.24 714.544 1382 713.774 1382.55 713.492C1386.47 711.465 1389.56 710.039 1394.07 709.778Z"/>
	<path d="M670.516 695.931C671.957 695.879 673.415 695.838 674.857 695.897C682.036 696.19 705.079 727.269 711.05 733.9L710.872 696.27L722.568 696.253L722.464 755.28C721.019 755.329 719.562 755.364 718.117 755.322C710.954 755.114 688.362 723.762 681.931 716.894L681.962 755.289L670.264 755.342Q670.235 725.635 670.516 695.931Z"/>
	<path d="M527.061 695.46L537.53 695.477L537.56 755.248C534.322 755.342 531.635 755.725 528.784 754.131L527.741 749.999C525.582 749.554 522.484 753.39 520.087 754.399C514.185 756.881 508.368 755.629 502.643 753.386C502.474 753.266 502.302 753.148 502.134 753.025C496.356 748.816 492.747 743.378 491.777 736.212C490.884 729.616 492.675 722.601 496.831 717.373C500.045 713.33 504.606 710.5 509.792 709.974C517.105 709.233 521.809 712.558 527.184 717.049C526.95 709.85 527.007 702.661 527.061 695.46Z"/>
	<path fill="#E2E2E2" d="M510.101 719.255C512.354 718.993 515.003 718.783 517.252 719.192C520.453 719.774 523.496 722.224 525.259 724.895Q525.645 725.474 525.969 726.09Q526.293 726.706 526.552 727.352Q526.812 727.997 527.004 728.666Q527.196 729.335 527.318 730.02Q527.44 730.705 527.492 731.399Q527.543 732.093 527.524 732.789Q527.504 733.484 527.413 734.174Q527.322 734.864 527.161 735.541C525.923 740.876 523.043 743.473 518.52 746.225C516.571 746.566 514.313 746.684 512.351 746.338C509.114 745.767 506.035 743.646 504.23 740.941C502.017 737.624 501.533 733.565 502.305 729.708C503.306 724.71 506.023 722.034 510.101 719.255Z"/>
	<path d="M1128.9 585.331C1138.06 584.719 1147.45 585.132 1156.64 585.128C1159.11 589.982 1158.62 642.856 1157.97 650.503C1157.31 658.254 1154.68 665.556 1148.47 670.565C1138.13 678.895 1123.39 677.718 1111.02 676.363C1108.76 675.109 1105.72 674.543 1103.3 673.355C1098.42 670.962 1093.88 667.959 1089.08 665.418C1095.38 661.687 1101.21 653.879 1105.6 648.05Q1106.45 648.826 1107.32 649.582C1110.82 652.63 1115.96 656.545 1120.92 655.931C1122.88 655.689 1124.54 654.692 1125.74 653.131C1127.74 650.513 1128.55 646.677 1128.88 643.46C1129.57 636.79 1128.94 629.822 1129 623.098C1129.11 610.652 1130.02 597.708 1128.9 585.331Z"/>
	<path d="M1360.07 586.221C1369.27 584.977 1379.4 585.662 1388.7 585.658L1441.76 585.678C1442.33 586.532 1442.79 587.45 1443.03 588.453C1444.04 592.76 1444.16 602.403 1441.8 606.213L1414.01 606.256C1414.6 607.213 1415.11 608.242 1415.31 609.363C1416.37 615.333 1416.69 644.188 1414.02 648.448C1414.5 649.219 1414.95 650.048 1415.19 650.929C1416.64 656.276 1416.69 671.092 1414.05 675.755L1384.43 675.776C1384.92 674.989 1385.27 674.231 1385.47 673.311C1386.91 666.679 1386.3 618.72 1385.44 610.126C1385.29 608.649 1384.79 607.466 1384 606.216L1359.24 606.033C1361.87 601.904 1361.06 590.967 1360.07 586.221Z"/>
	<path d="M1309.22 583.555C1319.36 582.865 1329.44 584.141 1338.76 588.372C1344.8 591.117 1353.84 597.349 1356.34 603.867C1356.29 603.992 1356.26 604.124 1356.2 604.242C1354.49 607.44 1339.82 615.969 1335.98 617.635C1335.91 617.096 1335.93 617.019 1335.69 616.439C1333.95 612.328 1328.74 609.296 1324.71 607.995C1318.65 606.041 1310.75 605.535 1304.95 608.531C1298.84 611.68 1293.97 616.664 1292.03 623.361Q1291.86 623.948 1291.72 624.543Q1291.59 625.137 1291.48 625.738Q1291.37 626.339 1291.29 626.944Q1291.21 627.549 1291.16 628.158Q1291.11 628.766 1291.09 629.376Q1291.07 629.987 1291.08 630.597Q1291.09 631.207 1291.13 631.817Q1291.17 632.426 1291.24 633.032Q1291.31 633.638 1291.42 634.241Q1291.52 634.843 1291.65 635.439Q1291.78 636.036 1291.93 636.625Q1292.09 637.215 1292.28 637.796Q1292.47 638.376 1292.69 638.947Q1292.9 639.518 1293.15 640.078Q1293.39 640.637 1293.66 641.184Q1293.93 641.731 1294.23 642.264Q1294.54 642.815 1294.88 643.351Q1295.22 643.886 1295.58 644.404Q1295.95 644.922 1296.34 645.422Q1296.73 645.921 1297.14 646.401Q1297.55 646.88 1297.99 647.339Q1298.43 647.798 1298.88 648.234Q1299.34 648.671 1299.82 649.084Q1300.3 649.497 1300.8 649.886Q1301.3 650.276 1301.82 650.64Q1302.34 651.004 1302.87 651.342Q1303.41 651.68 1303.96 651.991Q1304.51 652.302 1305.08 652.585Q1305.64 652.869 1306.22 653.124Q1306.8 653.38 1307.39 653.606Q1307.99 653.832 1308.59 654.029Q1309.19 654.226 1309.8 654.393C1316.84 656.344 1323.56 654.787 1329.77 651.169C1332.76 649.425 1335.82 647.364 1336.76 643.831C1339.37 645.313 1342.49 646.971 1343.95 649.657C1347.83 651.406 1353.74 654.942 1355.61 658.738C1355.4 659.513 1355.15 660.254 1354.72 660.94C1349.55 669.09 1334.91 675.062 1325.83 676.761C1310.66 679.6 1293.4 676.765 1280.68 667.78C1270.7 660.736 1263.77 650.343 1261.87 638.215C1260 626.288 1262.37 614.138 1269.66 604.391C1279.38 591.398 1293.7 585.848 1309.22 583.555Z"/>
	<path d="M1175.16 585.332C1199.75 584.03 1225.04 585.178 1249.7 585.26C1250.03 585.808 1250.3 586.174 1250.52 586.758C1252.08 590.865 1251.77 601.841 1249.91 605.812C1234.64 606.194 1219.31 605.905 1204.03 605.865C1204.12 606.068 1204.22 606.267 1204.3 606.474C1205.66 610.045 1205.34 614.447 1203.64 617.81L1245.64 617.84C1245.99 618.493 1246.28 619.13 1246.54 619.829C1248.14 624.219 1247.69 634.173 1245.62 638.338L1206.1 638.304C1203.15 642.485 1205.95 649.217 1203.32 654.261L1250.63 654.204C1251.18 655.034 1251.65 655.927 1251.86 656.908C1252.86 661.456 1253.05 671.605 1250.61 675.714C1225.01 676.121 1199.37 675.873 1173.77 675.884C1176.49 670.476 1176.02 595.614 1175.16 585.332Z"/>
	<path d="M541.609 585.067Q580.419 584.978 619.228 585.289L619.189 606.26L571.579 606.267L571.579 619.256L614.685 619.394L614.71 639.183L573.99 639.258C573.254 639.343 572.681 639.796 572.044 640.16C570.849 644.764 571.589 650.503 571.675 655.259L621.211 655.508L621.222 676.374L541.4 676.299L541.609 585.067Z"/>
	<path d="M792.415 585.303C811.74 585.245 844.721 582.092 861.334 590.793C868.885 594.748 874.702 601.176 877.242 609.38C879.677 617.24 879.13 626.215 875.132 633.474C869.9 642.974 860.88 647.259 850.907 650.022C841.402 651.498 831.481 651.083 821.884 651.035L821.922 676.312L791.856 676.295C791.829 662.22 790.235 592.601 792.415 585.303Z"/>
	<path fill="#E2E2E2" d="M821.761 606.297C829.016 606.169 836.098 605.669 842.814 608.976C845.381 610.241 847.467 612.311 848.2 615.143C849.221 619.094 847.379 623.102 845.51 626.463C838.755 631.689 829.827 630.553 821.805 630.433L821.761 606.297Z"/>
	<path d="M888.748 585.628C907.127 585.425 937.229 582.903 953.99 587.638C962.7 590.098 971.002 595.161 975.481 603.248C979.232 610.022 980.394 619.101 978.22 626.559C975.526 635.798 968.306 641.275 960.201 645.654C966.169 655.515 973 664.844 978.557 674.96L977.933 676.091L974.207 676.275L946.818 676.284L931.286 650.42L919.07 650.41L919.226 675.722L888.775 675.999L888.748 585.628Z"/>
	<path fill="#E2E2E2" d="M919.232 606.229C927.599 606.131 937.196 605.101 944.555 609.945C946.605 611.295 948.182 613.101 948.601 615.58C949.303 619.734 947.281 623.305 944.843 626.44C936.465 630.522 928.271 629.628 919.152 629.564L919.232 606.229Z"/>
	<path d="M636.754 585.018C656.187 584.895 691.77 582.298 709.472 587.63C715.9 589.566 722.201 593.149 725.413 599.284C727.772 603.789 728.223 609.717 726.657 614.552C724.361 621.639 717.769 625.155 711.592 628.348C718.969 630.973 727.287 634.283 731.211 641.564C734.474 647.62 733.449 653.841 731.518 660.128Q729.805 663.174 727.378 665.689C714.232 679.257 686.262 676.442 669.042 676.327L636.779 676.291C637.268 645.898 636.711 615.423 636.754 585.018Z"/>
	<path fill="#E2E2E2" d="M667.108 605.036C674.728 604.903 684.366 603.724 691.697 606.038C693.885 606.728 695.981 607.897 696.965 610.079C698.249 612.927 697.162 615.515 696.035 618.156C688.624 622.731 675.734 620.948 667.16 620.826L667.108 605.036Z"/>
	<path fill="#E2E2E2" d="M666.988 638.936C675.882 638.834 687.779 637.417 696.12 640.532C698.297 641.345 700.353 642.655 701.204 644.929C702.29 647.833 701.155 650.523 699.936 653.128C690.862 657.707 677.298 655.886 667.269 655.758L666.988 638.936Z"/>
	<path d="M1030.12 584.407C1047.25 582.342 1065.29 584.575 1079.41 595.289C1088.75 602.379 1095 612.666 1096.39 624.364Q1096.52 625.475 1096.59 626.591Q1096.66 627.707 1096.67 628.825Q1096.69 629.943 1096.65 631.061Q1096.61 632.179 1096.51 633.293Q1096.42 634.407 1096.27 635.515Q1096.12 636.623 1095.91 637.723Q1095.71 638.822 1095.45 639.91Q1095.19 640.998 1094.88 642.072Q1094.57 643.146 1094.21 644.203Q1093.84 645.26 1093.43 646.299Q1093.01 647.336 1092.54 648.353Q1092.08 649.369 1091.56 650.361Q1091.05 651.353 1090.48 652.318Q1089.92 653.283 1089.31 654.22Q1088.69 655.156 1088.04 656.061Q1087.38 656.966 1086.68 657.837C1078 668.556 1064.22 675.213 1050.61 676.576C1050.51 676.615 1050.41 676.664 1050.3 676.695C1037.74 680.274 1020.2 675.616 1009.35 669.396C998.608 663.24 990.38 653.498 987.259 641.394Q987 640.385 986.789 639.366Q986.579 638.346 986.418 637.317Q986.258 636.288 986.147 635.253Q986.036 634.217 985.976 633.178Q985.915 632.138 985.905 631.097Q985.895 630.055 985.935 629.015Q985.975 627.974 986.066 626.937Q986.156 625.9 986.297 624.868Q986.437 623.836 986.628 622.812Q986.818 621.788 987.058 620.775Q987.297 619.762 987.586 618.761Q987.874 617.76 988.211 616.775Q988.547 615.79 988.931 614.822Q989.315 613.854 989.745 612.905Q990.175 611.957 990.651 611.031Q991.126 610.104 991.646 609.202C1000.21 594.656 1014.55 588.488 1030.12 584.407Z"/>
	<path fill="#E2E2E2" d="M1036.92 606.65C1043.4 606.106 1049.78 606.8 1055.37 610.361C1060.92 613.887 1064.51 619.399 1065.76 625.823C1067.03 632.347 1065.84 639.551 1061.95 645.012C1057.61 651.116 1051.57 653.709 1044.38 654.894C1039.1 655.346 1034.06 654.796 1029.3 652.304C1023.77 649.406 1019.77 644.345 1017.92 638.405Q1017.73 637.809 1017.58 637.205Q1017.42 636.601 1017.3 635.99Q1017.17 635.379 1017.07 634.762Q1016.98 634.145 1016.91 633.525Q1016.85 632.904 1016.81 632.281Q1016.78 631.658 1016.78 631.034Q1016.77 630.41 1016.8 629.786Q1016.83 629.163 1016.89 628.542Q1016.95 627.92 1017.04 627.303Q1017.13 626.685 1017.25 626.073Q1017.37 625.461 1017.52 624.855Q1017.67 624.249 1017.85 623.652Q1018.03 623.055 1018.24 622.467Q1018.45 621.879 1018.69 621.303Q1018.93 620.727 1019.2 620.163Q1019.46 619.599 1019.76 619.049C1023.69 611.892 1029.3 608.819 1036.92 606.65Z"/>
	<path d="M352.177 585.164C362.437 584.718 372.905 585.058 383.186 585.03Q394.664 612.311 404.992 640.049C412.748 622.077 419.321 603.392 426.502 585.159L456.873 585.133Q467.401 612.522 478.232 639.792C486.235 622.007 492.458 603.22 499.812 585.119L530.485 585.276C526.568 594.462 523.011 603.826 519.318 613.106C510.112 633.674 502.461 655.359 494.083 676.309L462.886 676.267C455.842 658.011 448.407 639.876 441.17 621.693C433.471 639.777 426.203 658.082 418.733 676.264L387.979 676.158C380.683 660.313 374.696 643.557 368.213 627.35C362.723 613.624 356.042 599.424 352.177 585.164Z"/>
	<path d="M607.005 284.37C684.572 283.461 762.266 284.205 839.839 284.4L839.794 348.735L694.99 348.708L695.003 401.748L823.629 401.772L823.642 416.444L823.606 466.128L694.917 466.406L695.017 561.674L606.902 561.548L607.005 284.37Z"/>
	<path d="M339.723 284.328L576.941 284.358L576.84 348.803C527.384 348.031 477.827 348.616 428.359 348.574L428.297 402.144L555.379 402.014L555.368 413.778L555.334 465.912L428.401 465.857L428.453 561.97L339.744 561.975L339.723 284.328Z"/>
	<path d="M1327.39 278.666C1364.83 276.601 1405.7 285.401 1435.46 309.203C1442.76 315.039 1462 333.461 1462.99 342.228C1460.28 346.484 1411.86 384.038 1406.07 386.686C1406.14 384.743 1404.71 382.982 1403.68 381.42C1392.99 365.249 1376.61 352.758 1357.43 348.93Q1355.67 348.565 1353.9 348.289Q1352.13 348.012 1350.35 347.824Q1348.56 347.636 1346.77 347.537Q1344.98 347.439 1343.19 347.43Q1341.4 347.42 1339.61 347.501Q1337.81 347.581 1336.03 347.751Q1334.24 347.92 1332.47 348.179Q1330.7 348.438 1328.94 348.785Q1327.18 349.131 1325.44 349.566Q1323.7 350 1321.98 350.52Q1320.27 351.041 1318.58 351.646Q1316.89 352.252 1315.23 352.941Q1313.58 353.63 1311.96 354.401Q1310.34 355.172 1308.76 356.023Q1307.18 356.873 1305.65 357.802Q1304.12 358.73 1302.63 359.734C1287.68 370.029 1278.53 386.369 1275.35 404.008C1271.41 425.902 1275.38 450.847 1288.36 469.22Q1289.29 470.55 1290.28 471.833Q1291.27 473.115 1292.33 474.347Q1293.38 475.579 1294.5 476.757Q1295.61 477.934 1296.79 479.056Q1297.96 480.177 1299.18 481.239Q1300.41 482.301 1301.69 483.301Q1302.96 484.301 1304.29 485.236Q1305.61 486.171 1306.98 487.04Q1308.35 487.909 1309.76 488.708Q1311.17 489.508 1312.62 490.237Q1314.07 490.966 1315.56 491.622Q1317.04 492.278 1318.55 492.86Q1320.07 493.442 1321.61 493.948Q1323.15 494.454 1324.71 494.884Q1326.28 495.313 1327.86 495.664Q1329.44 496.016 1331.04 496.288C1348.88 499.247 1368.68 495.39 1383.4 484.631C1389.73 480.002 1405.29 466.152 1406.6 458.223C1413.17 460.675 1424.87 469.715 1429.32 474.939C1434.75 477.365 1462.42 497.566 1464.93 501.949C1464.96 505.21 1459.19 511.597 1457.09 514.182C1434.48 542.119 1399.17 558.334 1363.91 561.858C1318.01 566.444 1269.09 560.249 1232.42 530.045C1204.77 507.279 1188.63 473.149 1185.2 437.799C1181.58 400.377 1191.34 360.168 1215.58 330.851C1244.01 296.466 1284.19 282.67 1327.39 278.666Z"/>
	<path d="M1055.22 284.162L1142.28 284.337C1143.11 285.958 1143.55 287.256 1143.62 289.077C1144.31 306.321 1143.75 323.791 1143.74 341.06L1143.67 439.779L1143.74 515.513C1143.78 530.425 1144.37 545.549 1143.47 560.424C1141.8 561.877 1140.29 561.637 1138.17 561.816L1066.3 561.647C1066.06 558.156 964.052 433.358 955.435 423.333C954.945 469.334 955.579 515.396 955.488 561.405L870.153 561.257L870.184 284.275C895.694 283.401 921.548 284.315 947.096 284.31C969.589 310.047 990.445 337.526 1011.89 364.144C1025.66 381.235 1040.75 397.796 1053.83 415.365C1054.56 416.346 1054.87 417.327 1055.07 418.527C1055.63 417.609 1056.09 416.624 1056.29 415.563C1058.07 406.209 1056.65 379.86 1056.66 369.116L1056.69 316.026C1056.7 306.791 1057.23 297.173 1056.54 287.975C1056.43 286.511 1055.99 285.408 1055.22 284.162Z"/>
</svg>
